<svg width="24" height="24" viewBox="0 0 24 24" fill="none" xmlns="http://www.w3.org/2000/svg">
<path d="M13.24 15.62L9.83 16.35C9.69707 16.3646 9.56294 16.3646 9.43 16.35C8.95699 16.3541 8.50246 16.1665 8.17 15.83C7.74274 15.3917 7.56592 14.7672 7.7 14.17L8.43 10.77C8.58508 10.1015 8.93275 9.49303 9.43 9.02001L15.13 3.32001H6.13C5.01465 3.30645 3.94101 3.74355 3.15228 4.53228C2.36354 5.32102 1.92645 6.39465 1.94 7.51001V17.86C1.94 20.1465 3.79354 22 6.08 22H16.44C18.7265 22 20.58 20.1465 20.58 17.86V9.07001L15 14.66C14.5195 15.1448 13.9077 15.4785 13.24 15.62Z" fill="black"/>
<path fill-rule="evenodd" clip-rule="evenodd" d="M16.77 3.11001C17.9273 1.78227 19.9367 1.63079 21.28 2.77001C21.843 3.41829 22.1238 4.26458 22.06 5.12084C21.9961 5.9771 21.5929 6.7724 20.94 7.33001L14.27 14C13.9182 14.3328 13.4767 14.5552 13 14.64L9.62001 15.4C9.34192 15.4811 9.04186 15.3992 8.84347 15.1882C8.64507 14.9771 8.58191 14.6726 8.68001 14.4L9.41001 11C9.52154 10.5369 9.76057 10.1142 10.1 9.78001L16.77 3.11001ZM17.18 7.77001L19.42 5.53001C19.6954 5.2345 19.6872 4.774 19.4016 4.48839C19.116 4.20278 18.6555 4.19465 18.36 4.47001L16.12 6.71001C15.8276 7.00283 15.8276 7.4772 16.12 7.77001C16.4128 8.06247 16.8872 8.06247 17.18 7.77001Z" fill="black"/>
</svg>
